<?xml version="1.0" encoding="utf-8"?>
<svg viewBox="68.6972 11.062 28.1267 40.82" xmlns="http://www.w3.org/2000/svg">
  <defs>
    <style>.cls-1{fill:#524008;}.cls-2{fill:#f0b500;}</style>
  </defs>
  <g id="Espiga" transform="matrix(1, 0, 0, 1, -31.341999053955075, 11.062000274658203)" style="">
    <path class="cls-2" d="M117.37,15.5a10.18,10.18,0,0,0,3.37-4.34,9.84,9.84,0,0,0,.71-3.94C121.25,3.08,118,.47,117.37,0a9.43,9.43,0,0,0-4.29,6.42,9.34,9.34,0,0,0,1.46,6A10.85,10.85,0,0,0,117.37,15.5Z"/>
    <path class="cls-2" d="M110.68,34.84a10.2,10.2,0,0,0,1.23-5.13,11.12,11.12,0,0,0-.82-3.93,10.71,10.71,0,0,0-5.92-5.52,9.44,9.44,0,0,0-1.26,7.38,10.44,10.44,0,0,0,3.33,5.17A10.21,10.21,0,0,0,110.68,34.84Z"/>
    <path class="cls-2" d="M114.73,24.79a10.92,10.92,0,0,0,.78-5.6,11.62,11.62,0,0,0-1.27-4.12,11.49,11.49,0,0,0-6.84-5.36,10.17,10.17,0,0,0-.59,8,11.35,11.35,0,0,0,4.06,5.22A10.83,10.83,0,0,0,114.73,24.79Z"/>
    <path class="cls-2" d="M113,35.71a10.3,10.3,0,0,1,1.46-5.12,11.1,11.1,0,0,1,2.65-3.07,10.82,10.82,0,0,1,7.93-2,9.59,9.59,0,0,1-2.54,7.12,10.7,10.7,0,0,1-5.47,3A10.45,10.45,0,0,1,113,35.71Z"/>
    <path class="cls-2" d="M117.16,24.75a10.46,10.46,0,0,1,.66-5.46,11,11,0,0,1,2.24-3.48,10.9,10.9,0,0,1,7.86-3,9.7,9.7,0,0,1-1.45,7.65,10.4,10.4,0,0,1-5.18,3.68A10.52,10.52,0,0,1,117.16,24.75Z"/>
    <path class="cls-2" d="M121.33,40.82a9.15,9.15,0,0,0,.72-3.67,9.41,9.41,0,0,0-7.42.7,9.1,9.1,0,0,0-2.6,2.52c-.1.15-.18.3-.27.45Z"/>
    <path class="cls-2" d="M102.93,40.82h5.23a9,9,0,0,0-.81-6.13,9.32,9.32,0,0,0-6.08-4.31,8.48,8.48,0,0,0-.86,6.88A8.11,8.11,0,0,0,102.93,40.82Z"/>
  </g>
</svg>